<svg xmlns="http://www.w3.org/2000/svg" version="1.1" xlink="http://www.w3.org/1999/xlink" xmlns:svgjs="http://svgjs.com/svgjs" width="100%" height="100%" preserveAspectRatio="xMidYMid meet" viewBox="0 0 146.94505310058594 146.94505310058594" overflow="visible"><defs id="SvgjsDefs88171"></defs><g id="SvgjsG88172" transform="scale(0.515970515970516)" opacity="1"><g id="SvgjsG88173" class="_CQG6SV_Z" transform="translate(0, 0) scale(1.0642510272693313)" light-content="false" non-strokable="false" fill="#c62f36"><circle cx="133.8" cy="133.8" r="133.8"></circle></g><g id="SvgjsG88174" class="qrVZ202zYh" transform="translate(54.52518083023652, 54.52606006963596) scale(1.7584787986072818)" light-content="true" non-strokable="false" fill="#ffffff"><path d="M63.256 50.029a3.184 3.184 0 0 1-2.679-1.463L49.163 30.808l-.023-.035a16.7 16.7 0 0 1-2.636-9.023C46.505 12.514 54.019 5 63.256 5c9.236 0 16.75 7.514 16.75 16.75 0 3.225-.919 6.359-2.659 9.06L65.935 48.566a3.184 3.184 0 0 1-2.679 1.463zm-8.715-22.633l8.715 13.559 8.735-13.59a10.343 10.343 0 0 0 1.647-5.614c0-5.725-4.657-10.382-10.382-10.382S52.874 16.026 52.874 21.75c0 1.999.569 3.939 1.645 5.61l.022.036z"></path><path d="M63.256 28.641c-3.788 0-6.87-3.082-6.87-6.87s3.082-6.869 6.87-6.869c3.788 0 6.869 3.081 6.869 6.869s-3.081 6.87-6.869 6.87zm0-9.493a2.627 2.627 0 0 0-2.624 2.623 2.627 2.627 0 0 0 2.624 2.624 2.626 2.626 0 0 0 2.623-2.624 2.626 2.626 0 0 0-2.623-2.623zM36.233 94.936c-.085-.011-.17-.032-.265-.053l-.138-.042c.127.042.265.074.403.095zm1.613-.095l-.127.042a.903.903 0 0 1-.287.053c.138-.021.276-.053.414-.095z"></path><path d="M90.336 32.808l-5.329-1.518c-1.688-.488-3.45.499-3.938 2.187a3.194 3.194 0 0 0 2.197 3.938l3.015.86v49.327l-21.007-5.987v-22.78a2.122 2.122 0 1 0-4.246 0v22.779L38.96 87.909V38.582l4.469-1.284a3.18 3.18 0 0 0 2.187-3.927 3.19 3.19 0 0 0-3.938-2.197l-4.84 1.38-25.433-7.25A3.18 3.18 0 0 0 7.35 28.36v55.951c0 1.422.945 2.675 2.303 3.068l26.176 7.462c.127.042.265.074.403.095.192.043.404.064.606.064.191 0 .393-.011.594-.064.138-.021.276-.053.414-.095l25.295-7.218h.011l25.433 7.261c.287.074.584.116.881.116.679 0 1.359-.223 1.911-.637a3.214 3.214 0 0 0 1.274-2.548v-55.95a3.181 3.181 0 0 0-2.315-3.057zM34.715 87.899l-20.996-5.987V32.585l20.996 5.987v49.327z"></path></g></g></svg>