<svg version="1.2" baseProfile="tiny-ps" xmlns="http://www.w3.org/2000/svg" viewBox="0 0 301 55" width="301" height="55">
	<title>logo-svg</title>
	<style>
		tspan { white-space:pre }
		.shp0 { fill: #c62f36 } 
		.shp1 { fill: #ffffff } 
		.shp2 { fill: #4a4a4a } 
	</style>
	<g id="SvgjsG81591">
		<g id="SvgjsG81592">
			<path id="Layer" class="shp0" d="M27.31 54.62C12.21 54.62 0 42.41 0 27.31C0 12.21 12.21 0 27.31 0C42.41 0 54.62 12.21 54.62 27.31C54.62 42.41 42.41 54.62 27.31 54.62Z" />
		</g>
		<g id="SvgjsG81593">
			<path id="Layer" fill-rule="evenodd" class="shp1" d="M31.19 27.3C31.11 27.28 31.04 27.25 30.96 27.21C30.89 27.17 30.82 27.12 30.76 27.06C30.7 27.01 30.65 26.94 30.61 26.87L27.06 21.35L27.05 21.34C26.92 21.13 26.8 20.92 26.7 20.69C26.6 20.47 26.51 20.24 26.44 20C26.37 19.76 26.32 19.52 26.28 19.28C26.25 19.03 26.23 18.78 26.23 18.54C26.23 15.67 28.57 13.33 31.44 13.33C34.31 13.33 36.64 15.67 36.64 18.54C36.64 19.54 36.36 20.51 35.82 21.35L32.27 26.87C32.23 26.94 32.17 27.01 32.11 27.06C32.05 27.12 31.99 27.17 31.91 27.21C31.84 27.25 31.76 27.28 31.68 27.3C31.6 27.32 31.52 27.33 31.44 27.33C31.36 27.33 31.27 27.32 31.19 27.3ZM31.44 24.51L34.15 20.28C34.24 20.15 34.31 20.02 34.37 19.88C34.44 19.74 34.49 19.59 34.54 19.45C34.58 19.3 34.61 19.15 34.63 19C34.65 18.85 34.67 18.69 34.67 18.54C34.67 16.76 33.22 15.31 31.44 15.31C29.66 15.31 28.21 16.76 28.21 18.54C28.21 19.16 28.39 19.76 28.72 20.28L28.73 20.29L31.44 24.51Z" />
			<path id="Layer" fill-rule="evenodd" class="shp1" d="M31.44 20.68C30.26 20.68 29.3 19.72 29.3 18.54C29.3 17.37 30.26 16.41 31.44 16.41C32.62 16.41 33.57 17.37 33.57 18.54C33.57 19.72 32.62 20.68 31.44 20.68ZM31.13 17.79C31.03 17.83 30.94 17.89 30.86 17.97C30.79 18.04 30.73 18.13 30.69 18.23C30.64 18.33 30.62 18.44 30.62 18.54C30.62 18.65 30.64 18.76 30.69 18.86C30.73 18.96 30.79 19.04 30.86 19.12C30.94 19.2 31.03 19.26 31.13 19.3C31.23 19.34 31.33 19.36 31.44 19.36C31.55 19.36 31.65 19.34 31.75 19.3C31.85 19.26 31.94 19.2 32.01 19.12C32.09 19.04 32.15 18.96 32.19 18.86C32.23 18.76 32.25 18.65 32.25 18.54C32.25 18.44 32.23 18.33 32.19 18.23C32.15 18.13 32.09 18.04 32.01 17.97C31.94 17.89 31.85 17.83 31.75 17.79C31.65 17.75 31.55 17.73 31.44 17.73C31.33 17.73 31.23 17.75 31.13 17.79ZM23.54 41.26L23.5 41.27C23.49 41.27 23.49 41.27 23.48 41.28C23.47 41.28 23.46 41.28 23.46 41.28C23.45 41.28 23.44 41.28 23.43 41.28C23.43 41.29 23.42 41.29 23.41 41.29C23.45 41.28 23.5 41.27 23.54 41.26ZM23.04 41.29C23.01 41.28 22.99 41.28 22.96 41.27L22.91 41.26C22.95 41.27 23 41.28 23.04 41.29Z" />
			<path id="Layer" fill-rule="evenodd" class="shp1" d="M39.86 21.97C39.96 22 40.06 22.05 40.14 22.11C40.23 22.17 40.31 22.24 40.37 22.33C40.44 22.41 40.49 22.51 40.52 22.61C40.56 22.71 40.58 22.82 40.58 22.92L40.58 40.32C40.57 40.39 40.57 40.47 40.55 40.54C40.53 40.62 40.5 40.69 40.47 40.76C40.44 40.83 40.39 40.89 40.34 40.95C40.3 41.01 40.24 41.06 40.18 41.11C40.01 41.24 39.8 41.31 39.59 41.31C39.49 41.31 39.4 41.29 39.31 41.27L31.41 39.01L31.4 39.01L23.54 41.26C23.5 41.27 23.45 41.28 23.41 41.29C23.35 41.3 23.29 41.31 23.23 41.31C23.16 41.31 23.1 41.3 23.04 41.29C23 41.28 22.95 41.27 22.91 41.26L14.78 38.94C14.36 38.81 14.06 38.43 14.06 37.98L14.06 20.59C14.06 20.44 14.1 20.29 14.17 20.15C14.23 20.01 14.33 19.9 14.46 19.8C14.58 19.71 14.72 19.65 14.87 19.62C15.02 19.59 15.18 19.6 15.32 19.64L23.23 21.9L24.73 21.47C24.86 21.43 24.99 21.42 25.12 21.44C25.25 21.45 25.37 21.49 25.49 21.56C25.6 21.62 25.7 21.7 25.78 21.81C25.86 21.91 25.92 22.02 25.96 22.15C25.99 22.27 26 22.41 25.99 22.53C25.97 22.66 25.93 22.79 25.87 22.9C25.81 23.01 25.72 23.11 25.62 23.19C25.52 23.28 25.4 23.33 25.28 23.37L23.89 23.77L23.89 39.1L30.75 37.14L30.75 30.06C30.75 29.89 30.82 29.72 30.94 29.6C31.06 29.47 31.23 29.41 31.41 29.41C31.58 29.41 31.75 29.47 31.87 29.6C32 29.72 32.07 29.89 32.07 30.06L32.07 37.15L38.6 39.01L38.6 23.67L37.66 23.41C37.53 23.37 37.42 23.31 37.31 23.23C37.21 23.15 37.13 23.05 37.06 22.94C37 22.82 36.96 22.7 36.94 22.57C36.93 22.44 36.94 22.31 36.98 22.18C37.13 21.66 37.67 21.35 38.2 21.5L39.86 21.97ZM22.57 23.77L16.04 21.91L16.04 37.24L22.57 39.1L22.57 23.77Z" />
		</g>
		<g id="SvgjsG81594">
			<path id="Layer" fill-rule="evenodd" class="shp2" d="M104.53 35.55L104.53 40.75L81 40.75L81 37.18L95.69 18.19L81.21 18.19L81.21 13L104.32 13L104.32 16.56L89.6 35.55L104.53 35.55ZM122.51 18.66L112.67 18.66L112.67 13.44L138.99 13.44L138.99 18.66L129.14 18.66L129.14 41.19L122.51 41.19L122.51 18.66ZM146 27L161.14 27L161.14 32.25L146 32.25L146 27ZM195.43 40.81C192.59 41.27 189.95 41.51 187.5 41.51C181.59 41.51 177.17 40.32 174.23 37.95C171.29 35.58 169.82 32.08 169.81 27.43C169.81 24.38 170.48 21.78 171.83 19.64C173.18 17.49 175.18 15.87 177.83 14.75C180.48 13.64 183.72 13.09 187.54 13.09C189.92 13.09 192.22 13.32 194.44 13.8L194.44 19.12C192.35 18.67 190.22 18.45 188.03 18.45C184.16 18.46 181.31 19.21 179.47 20.68C177.62 22.16 176.7 24.43 176.7 27.52C176.73 33.3 180.2 36.18 187.12 36.18C187.84 36.18 188.54 36.16 189.23 36.13L189.23 27.69L195.43 27.69L195.43 40.81ZM201.17 28.89L201.17 13.44L207.81 13.44L207.81 29.45C207.81 31.79 208.34 33.51 209.41 34.6C210.48 35.69 212.11 36.24 214.31 36.24C216.51 36.24 218.14 35.69 219.2 34.6C220.27 33.51 220.79 31.79 220.79 29.45L220.79 13.44L227.32 13.44L227.32 28.89C227.32 33.08 226.27 36.23 224.17 38.36C222.07 40.48 218.79 41.54 214.31 41.54C209.76 41.54 206.44 40.48 204.33 38.36C202.22 36.23 201.17 33.08 201.17 28.89ZM233.04 13.44L239.67 13.44L239.67 41.19L233.04 41.19L233.04 13.44ZM245.52 14.21C246.92 13.89 248.55 13.64 250.42 13.45C252.29 13.27 254.08 13.18 255.77 13.18C261.46 13.18 265.75 14.34 268.62 16.67C271.51 19.01 272.95 22.55 272.95 27.32C272.95 30.62 272.26 33.3 270.9 35.38C269.53 37.45 267.47 38.98 264.73 39.96C261.98 40.94 258.5 41.43 254.27 41.43C251.2 41.43 248.29 41.26 245.52 40.91L245.52 14.21ZM265.09 32.34C265.82 31.03 266.18 29.34 266.18 27.26C266.18 24.22 265.35 21.99 263.69 20.55C262.03 19.11 259.48 18.4 256.04 18.4C254.8 18.4 253.51 18.51 252.16 18.73L252.16 36.01C253.1 36.13 254.39 36.18 256 36.18C258.35 36.18 260.27 35.87 261.77 35.25C263.26 34.62 264.37 33.65 265.09 32.34ZM300 36.22L300 41.19L277.77 41.19L277.77 13.44L299.81 13.44L299.81 18.41L284.33 18.41L284.33 24.53L297.85 24.53L297.85 29.49L284.33 29.49L284.33 36.22L300 36.22Z" />
		</g>
	</g>
</svg>